<?xml version="1.0" encoding="utf-8"?>

<!DOCTYPE svg PUBLIC "-//W3C//DTD SVG 1.1//EN" "http://www.w3.org/Graphics/SVG/1.1/DTD/svg11.dtd" [

	<!ENTITY ns_extend "http://ns.adobe.com/Extensibility/1.0/">

	<!ENTITY ns_ai "http://ns.adobe.com/AdobeIllustrator/10.0/">

	<!ENTITY ns_graphs "http://ns.adobe.com/Graphs/1.0/">

	<!ENTITY ns_vars "http://ns.adobe.com/Variables/1.0/">

	<!ENTITY ns_imrep "http://ns.adobe.com/ImageReplacement/1.0/">

	<!ENTITY ns_sfw "http://ns.adobe.com/SaveForWeb/1.0/">

	<!ENTITY ns_custom "http://ns.adobe.com/GenericCustomNamespace/1.0/">

	<!ENTITY ns_adobe_xpath "http://ns.adobe.com/XPath/1.0/">

]>

<svg version="1.1" id="Layer_1" xmlns:x="&ns_extend;" xmlns:i="&ns_ai;" xmlns:graph="&ns_graphs;"

	 xmlns="http://www.w3.org/2000/svg" xmlns:xlink="http://www.w3.org/1999/xlink" x="0px" y="0px" width="70px" height="70px"

	 viewBox="0 0 70 70" enable-background="new 0 0 70 70" xml:space="preserve">

<metadata>

	<sfw  xmlns="&ns_sfw;">

		<slices></slices>

		<sliceSourceBounds  x="0.5" y="-0.5" width="70" height="70" bottomLeftOrigin="true"></sliceSourceBounds>

	</sfw>

</metadata>

<path fill="#C82128" d="M44,32.6c1,1,2.1,2.1,2.9,3.3c0.899,1.3,1.8,2.6,2.8,3.8c0.8,1.1,1.7,2.1,2.5,3.1c1,0,2.1,0.101,3.2,0.101

	C54.7,42.6,54,42.3,53.3,41.9c-0.6-0.4-1.2-1-1.2-1.801c0-0.8,0.4-1.6,0.801-2.3c-1.5-0.899-3-1.8-4.601-2.6

	c-2.399-1.3-4.5-3.1-6.3-5c0.1-0.1,0.2-0.3,0.2-0.4c2.2,1,4.399,2.3,6.399,3.7c0.601,0.4,1.101,0.9,1.601,1.3c1,0.8,2,1.7,3.1,2.4

	c0.601-1,1.2-1.9,1.9-2.9c0,0-0.101-0.1-0.2-0.1c-0.7-0.3-1.5-0.4-2.3-0.7c-1-0.3-2.101-0.5-3.101-0.8c-2.5-0.8-4.899-1.9-7.1-3.3

	c0-0.2,0.1-0.3,0.1-0.5c2.2,0.4,4.301,1.1,6.4,1.8c1.1,0.4,2.1,0.9,3.1,1.4c1.101,0.6,2.301,1,3.4,1.5c0.6-1,1.3-1.9,1.9-2.9

	c0-0.1,0-0.2,0-0.2c-0.2,0-0.301,0-0.5,0c-2.301-0.2-4.601-0.2-7-0.4C48.3,30,46.7,29.7,45.1,29.3c-0.8-0.2-1.6-0.4-2.399-0.8

	c0-0.1,0.1-0.3,0.1-0.4c3.3-0.1,6.7,0.2,10,0.9c1.601,0.3,3.101,0.7,4.7,0.8c0.2,0,0.3,0,0.5,0V30c0.8-1.3,1.7-2.6,2.5-3.9

	c0-0.1,0-0.1,0-0.2c-0.8,0.1-1.7,0.3-2.5,0.4c-1.7,0.3-3.4,0.6-5.1,0.9c-3.301,0.7-6.7,1-10.101,0.7c0-0.2,0-0.3,0-0.5

	c0.601-0.2,1.3-0.4,1.9-0.5c2.5-0.5,5-0.8,7.6-0.9c0.7,0,1.4-0.1,2.101-0.1c2-0.1,4.1-0.3,6.1-0.4c0.1,0,0.2,0,0.4,0

	c2.5-3.9,5-7.7,7.5-11.6c0.199-0.3,0.5-0.7,0.6-1.1c-2.4,0-4.8,0-7.2,0c-0.3,0-0.6,0-0.899,0.2c-1.4,1-2.9,2-4.301,3

	C56.4,16.1,56.2,16.3,56,16.5c0.2-0.1,0.4-0.1,0.6-0.2c0.9-0.5,1.7-1.1,2.601-1.6c-0.9,0.7-1.9,1.4-2.8,2.1

	c-2.5,1.8-4.9,3.8-7.4,5.7c-2,1.5-4.2,2.8-6.5,3.8c-0.2,0.1-0.5,0-0.7-0.1c-1.899,1.3-3.7,2.5-5.6,3.8c0.1,0.1,0.2,0.2,0.3,0.3

	c-1.2,1.1-2.5,2.2-3.8,3.2c-1.5,1.1-3.2,2-4.9,2.9c-2.2,1.3-4.4,2.699-6.6,4c-0.6,0.399-1.2,0.8-1.9,1.1c0.4-0.4,0.9-0.7,1.3-1.1

	c0.9-0.7,1.9-1.4,2.8-2.101c0.5-0.399,1-0.7,1.4-1.1c0.4-0.3,0.8-0.5,1.2-0.9c-0.4,0.101-0.7,0.3-1,0.5c-0.9,0.5-1.7,0.9-2.6,1.3

	c-0.4,0.2-0.9,0.2-1.4,0.4c-6,1.3-12.2,1.8-18.4,1.7c-0.3,0-0.6,0-0.9,0.1c3.3,0.5,6.7,0.9,10,1.601c2.8,0.6,5.6,1.399,8.2,2.6

	c1.5,0.7,2.9,1.4,4.3,2.3c1.2,0.9,2.4,1.7,3.6,2.601c1.4,1,2.8,1.899,4.3,2.699c2.8,1.301,6,1.801,9.1,1.7c2.1-0.1,4.1-0.3,6.2-0.8

	c-1.601,0-3.301,0-4.9-0.1c-1.8-0.101-3.7-0.5-5.4-1.101c-1.3-0.399-2.5-1-3.6-1.8c-0.6-0.4-1.1-1-1.3-1.6

	C32,47.7,32.4,47,32.9,46.6c1-0.8,2.2-1.3,3.3-1.699V44.8c0.1-0.6,0.1-1.1,0.2-1.7c0.199-2.3,0.1-4.5,0.6-6.8

	c0.3-1.6,0.8-3.2,1.4-4.8c0.199,0,0.399,0,0.5,0c0,1.4-0.101,2.8-0.2,4.2C38.6,37,38.4,38.2,38,39.4c-0.5,1.699-0.9,3.5-1.2,5.199

	c0.5-0.1,1-0.3,1.601-0.399c0.8-0.2,1.6-0.4,2.399-0.5c0-0.101,0-0.2,0-0.3C40.7,42.8,40.6,42.2,40.4,41.6

	C40.2,40.7,39.9,39.9,39.7,39c-0.601-2.5-0.5-5-0.4-7.5c0.2,0,0.4,0,0.601,0c0.199,0.7,0.399,1.3,0.5,2C40.8,35,41.1,36.5,41.3,38

	c0.2,1.9,0.101,3.7,0.3,5.6c0.101,0,0.2,0,0.301,0c1-0.1,1.899-0.199,2.899-0.3c0.5-0.1,1,0,1.5-0.1c-0.3,0-0.6,0-0.899-0.101

	c-0.2-0.6-0.601-1.199-0.9-1.8c-0.4-0.899-1.1-1.7-1.6-2.6c-1-1.7-1.7-3.6-2.301-5.6C40.4,32.5,40.2,31.8,40.2,31.2

	c0.2,0,0.3-0.1,0.5-0.1c0.7,1,1.3,2,1.899,3.1c0.801,1.5,1.4,3,2,4.5C45,40,45.5,41.3,46,42.6c0.1,0.101,0.1,0.301,0.2,0.4

	c1.7-0.1,3.5-0.2,5.2-0.1c-0.5-0.7-1.2-1.2-1.801-1.9c-1-1-1.899-2-3-2.9C44.6,36.3,43,34.2,41.7,32c-0.2-0.4-0.5-0.7-0.601-1.1

	c0.101-0.1,0.2-0.3,0.2-0.4C42.4,31.1,43.2,31.9,44,32.6z"/>

<path fill="#F68826" d="M42.5,26.2c2.3-1,4.5-2.3,6.5-3.8c2.5-1.9,4.9-3.8,7.4-5.7c0.899-0.7,1.899-1.4,2.8-2.1

	c-0.9,0.5-1.8,1-2.601,1.6C56.4,16.3,56.2,16.4,56,16.4c-0.4,0.1-0.6,0.4-0.9,0.6c-0.6,0.3-1.1,0.7-1.6,1.1

	c-0.8,0.5-1.4,1.1-2.2,1.6c-1.6,1-3,2.1-4.5,3.1c-0.399,0.3-0.8,0.5-1.2,0.8c-1.199,0.9-2.5,1.6-3.6,2.5

	C42,26.2,42.3,26.4,42.5,26.2z M60.4,20.3c-1.601,0.5-3.2,1.1-4.7,1.6s-3.101,1-4.601,1.4c-3,0.7-5.8,1.9-8.5,3.4

	c0,0.2,0.101,0.3,0.101,0.5c1.1-0.1,2.1-0.4,3.1-0.6c2.7-0.7,5.3-1.7,7.7-2.9c1.2-0.5,2.5-1,3.7-1.6c1.5-0.6,3.1-1.3,4.6-1.9

	c0.3-0.1,0.601-0.2,0.8-0.4C61.8,19.9,61.1,20.1,60.4,20.3z M54.3,26c-0.7,0-1.399,0.1-2.1,0.1C49.6,26.2,47.1,26.4,44.6,27

	c-0.6,0.1-1.3,0.3-1.899,0.5c0,0.2,0,0.3,0,0.5c3.399,0.3,6.8,0,10.1-0.7c1.7-0.3,3.4-0.6,5.101-0.9c0.8-0.1,1.6-0.3,2.5-0.4

	c0,0.1,0,0.1,0,0.2c0.199-0.2,0.3-0.4,0.399-0.6c-0.1,0-0.3,0-0.399,0C58.4,25.7,56.4,25.9,54.3,26z M52.8,29.2

	c-3.3-0.7-6.6-1-10-0.9c0,0.1-0.1,0.3-0.1,0.4c0.8,0.4,1.6,0.5,2.399,0.8c1.601,0.4,3.2,0.7,4.801,0.8c2.3,0.2,4.6,0.2,7,0.4

	c0.199,0,0.5-0.1,0.699,0.1c0.101-0.2,0.301-0.4,0.4-0.6c-0.1,0-0.3,0-0.4,0C55.9,29.9,54.3,29.5,52.8,29.2z M49,30.9

	c-2.1-0.7-4.2-1.5-6.4-1.8c0,0.2-0.1,0.3-0.1,0.5c2.2,1.4,4.6,2.5,7.1,3.3c1,0.3,2.101,0.5,3.101,0.8c0.8,0.2,1.5,0.4,2.3,0.7

	c0,0,0.1,0,0.2,0.1c0.1-0.2,0.3-0.4,0.399-0.6C54.4,33.4,53.3,33,52.2,32.4C51.1,31.8,50,31.3,49,30.9z M48.5,33.6

	c-2-1.4-4.1-2.7-6.4-3.7C42,30,41.9,30.2,41.9,30.3c1.8,2,4,3.7,6.3,5c1.6,0.8,3.1,1.7,4.6,2.601c0.2-0.2,0.3-0.4,0.4-0.601

	C52.1,36.6,51.1,35.7,50.1,34.9C49.6,34.4,49.1,34,48.5,33.6z M32.6,33.4c1.3-1,2.6-2,3.8-3.2c-0.101-0.1-0.2-0.2-0.2-0.3

	c-0.601,0.3-1.1,0.7-1.7,1.1c-1.1,0.7-2.1,1.4-3.1,2c-0.6,0.4-1.2,0.8-1.9,1.2c-0.9,0.5-1.7,1.1-2.6,1.5c-0.3,0.2-0.6,0.3-0.8,0.6

	c-0.3,0.3-0.8,0.601-1.2,0.9c-0.5,0.399-0.9,0.7-1.4,1.1c-1,0.7-1.9,1.4-2.8,2.101c-0.4,0.3-0.9,0.699-1.3,1.1

	c0.6-0.3,1.2-0.7,1.9-1.1c2.2-1.301,4.3-2.801,6.6-4C29.4,35.4,31.1,34.6,32.6,33.4z M46.9,35.9C46,34.7,45,33.7,44,32.6

	c-0.8-0.8-1.5-1.6-2.4-2.2c-0.1,0.1-0.199,0.2-0.199,0.4c0.1,0.4,0.399,0.7,0.6,1.1c1.3,2.3,3,4.4,4.9,6.1c1.1,0.9,2,2,3,2.9

	c0.6,0.6,1.3,1.199,1.8,1.899c0.2,0,0.399,0,0.6,0c-0.8-1.1-1.7-2.1-2.5-3.1C48.7,38.5,47.8,37.2,46.9,35.9z M34,35.2

	c0.8-1,1.6-2,2.3-3c0.3-0.4,0.601-0.9,0.9-1.3c-0.101-0.1-0.4-0.3-0.601-0.2C35.2,31.9,33.7,33,32.5,34.5c-0.9,0.9-1.6,2-2.4,3.1

	c-0.9,1.301-2,2.601-2.9,3.9c-1,1.3-2.1,2.6-3,4c0.6-0.5,1-1.1,1.5-1.6c1.2-1.2,2.4-2.4,3.5-3.601c1.2-1.1,2.3-2.2,3.4-3.3

	C33.1,36.3,33.5,35.7,34,35.2z M37.6,31c-0.5,0.5-0.899,1.2-1.3,1.8c-0.8,1.2-1.5,2.4-2.1,3.7C34.1,36.7,34,36.8,34,37

	c-0.9,2.3-1.7,4.5-2.6,6.8c-0.6,1.5-1.2,3-1.8,4.5c0.3-0.399,0.5-0.899,0.7-1.3c0.5-1,1.1-2.1,1.7-3.1

	c0.9-1.601,1.7-3.101,2.6-4.601c1.5-2.6,2.8-5.3,3.5-8.2C37.9,31,37.7,31,37.6,31z M44.8,38.6c-0.5-1.6-1.2-3.1-2-4.5

	C42.2,33,41.5,32,40.9,31c-0.2,0-0.301,0.1-0.5,0.1c0.1,0.7,0.3,1.3,0.399,1.9c0.5,1.9,1.3,3.8,2.3,5.6

	c0.5,0.9,1.101,1.7,1.601,2.601c0.3,0.6,0.7,1.1,0.899,1.8c0.301,0.1,0.601,0,0.9,0.1c-0.1-0.199-0.1-0.3-0.2-0.5

	C45.7,41.3,45.2,40,44.8,38.6z M37,36.1c-0.5,2.2-0.4,4.5-0.6,6.801c-0.101,0.6,0,1.1-0.2,1.699v0.2c0.2-0.1,0.5-0.2,0.7-0.3

	c0.3-1.8,0.699-3.5,1.199-5.2c0.4-1.2,0.5-2.5,0.7-3.7C38.9,34.2,39,32.8,39,31.4c-0.2,0-0.4,0-0.5,0C37.8,32.9,37.3,34.4,37,36.1z

	 M41.4,37.8c-0.2-1.5-0.5-3-0.9-4.5c-0.2-0.7-0.4-1.3-0.5-2c-0.2,0-0.4,0-0.6,0C39.3,33.8,39.2,36.4,39.8,38.8

	c0.2,0.9,0.601,1.7,0.7,2.601c0.1,0.6,0.3,1.199,0.4,1.8c0,0.1,0,0.2,0,0.3c0.399,0,0.8-0.1,1.1-0.2c-0.1,0-0.2,0-0.3,0

	C41.5,41.6,41.6,39.7,41.4,37.8z"/>

<rect fill="none" width="70" height="70"/>

</svg>

